<svg xmlns="http://www.w3.org/2000/svg" xmlns:xlink="http://www.w3.org/1999/xlink" viewBox="0 0 190.3 16.6"><defs><style>.cls-1{stroke:#231f20;stroke-miterlimit:10;fill:url(#Orange_Yellow);}</style><linearGradient id="Orange_Yellow" x1="0.5" y1="8.3" x2="189.8" y2="8.3" gradientUnits="userSpaceOnUse"><stop offset="0" stop-color="#fff33b"/><stop offset="0.04" stop-color="#fee72e"/><stop offset="0.12" stop-color="#fed51b"/><stop offset="0.2" stop-color="#fdca10"/><stop offset="0.28" stop-color="#fdc70c"/><stop offset="0.67" stop-color="#f3903f"/><stop offset="0.89" stop-color="#ed683c"/><stop offset="1" stop-color="#e93e3a"/></linearGradient></defs><g id="Layer_2" data-name="Layer 2"><g id="Layer_1-2" data-name="Layer 1"><path class="cls-1" d="M3.18,1.59S4.28.48,4.29.51A20.66,20.66,0,0,1,7.84,1a51.93,51.93,0,0,1,5,2.11c1.17.52,2.3,1.16,3.51,1.56,1.68.56,3.3,0,4.87-.61,2.34-.94,4.62-2,7-2.89a11,11,0,0,1,7.93.53c2.3.9,4.55,1.89,6.88,2.66a18.3,18.3,0,0,0,4.29.76c3.37.28,6.75.43,10.13.63a14.6,14.6,0,0,0,9.07-2.26c.92-.6,1.94-1.06,2.85-1.68C71.54.39,73.78.77,75.88,1.75A21.32,21.32,0,0,0,84.49,3.5c2.24.06,4.46.46,6.69.71a7.89,7.89,0,0,0,.85.1c4.09.08,8.19.21,12.28.18a8.93,8.93,0,0,0,3.27-.8c1.51-.63,2.91-1.53,4.39-2.23a10.15,10.15,0,0,1,8.68,0c1.25.53,2.5,1.06,3.71,1.66,2.32,1.14,4.67.91,7.07.33a69,69,0,0,1,8.24-1.75c2.05-.24,4.18.23,6.27.22,2.91,0,5.84-.05,8.73-.33a82.16,82.16,0,0,1,10.87-.22,45.87,45.87,0,0,0,7.65-.6,17.94,17.94,0,0,1,12.66,2.74L188,5a4.92,4.92,0,0,1,1.51,5.43,1.53,1.53,0,0,1-.44.59c-2.67,2-5.3,4.26-8.78,4.62a34.49,34.49,0,0,1-7.11-.07,59.42,59.42,0,0,0-8.95-.39,69.94,69.94,0,0,1-9.91-.43,43.89,43.89,0,0,0-9.92-.07,26,26,0,0,1-10.87-1.12c-1-.29-1.91-.58-2.87-.84-2.69-.71-5.12.11-7.53,1.23a43.45,43.45,0,0,1-4.55,1.8,8.59,8.59,0,0,1-6.61-.81c-1.24-.62-2.51-1.2-3.72-1.89a11.55,11.55,0,0,0-7-1.09,13.81,13.81,0,0,1-2.13.1A75.23,75.23,0,0,0,85.32,13a13.82,13.82,0,0,1-2.13.11,15.76,15.76,0,0,0-6.86,1.36,22.32,22.32,0,0,1-4,1.16,2,2,0,0,1-1.25-.09,17.18,17.18,0,0,1-3.71-1.86c-3.71-2.89-7.92-3.28-12.36-2.83a43.55,43.55,0,0,1-5.22.33A25.88,25.88,0,0,0,38.41,13.6a23.24,23.24,0,0,1-7.24,2.17,10.64,10.64,0,0,1-5-.84c-1.79-.71-3.48-1.66-5.23-2.47A15.25,15.25,0,0,0,19,11.83c-2.45-.79-4.59.21-6.58,1.37a22.32,22.32,0,0,1-9.53,2.89,1.46,1.46,0,0,1-1.75-1.2A31.94,31.94,0,0,1,.5,9.41c0-3,.78-4.81,2.39-7.5Z"/></g></g></svg>