<svg xmlns="http://www.w3.org/2000/svg" xmlns:xlink="http://www.w3.org/1999/xlink" viewBox="0 0 67.29 19.5"><defs><style>.cls-1{stroke:#231f20;stroke-miterlimit:10;fill:url(#Orange_Yellow);}</style><linearGradient id="Orange_Yellow" x1="0.5" y1="9.75" x2="66.79" y2="9.75" gradientUnits="userSpaceOnUse"><stop offset="0" stop-color="#fff33b"/><stop offset="0.04" stop-color="#fee72e"/><stop offset="0.12" stop-color="#fed51b"/><stop offset="0.2" stop-color="#fdca10"/><stop offset="0.28" stop-color="#fdc70c"/><stop offset="0.67" stop-color="#f3903f"/><stop offset="0.89" stop-color="#ed683c"/><stop offset="1" stop-color="#e93e3a"/></linearGradient></defs><g id="Layer_2" data-name="Layer 2"><g id="Layer_1-2" data-name="Layer 1"><path class="cls-1" d="M66.77,9.42a17.31,17.31,0,0,1-1.44,7.71c-.87,1.82-1.71,2.27-3.54,1.53-3.5-1.43-6.95-3-10.4-4.48a12.66,12.66,0,0,0-9.87,0,31.86,31.86,0,0,1-5.24,1.47,11,11,0,0,1-3.15-.24c-1.13-.15-2.25-.41-3.39-.51a5.21,5.21,0,0,0-1.88.21A13.64,13.64,0,0,0,25,16.19a14,14,0,0,1-9,1.44c-2.12-.26-4.29-.13-6.39-.49a78.87,78.87,0,0,1-8-1.94C.41,14.85.71,13.57.54,12.63a1.55,1.55,0,0,1,.81-1.81c.83-.43.92-.79,0-1.29A1.57,1.57,0,0,1,.59,8.47,18.37,18.37,0,0,1,1,5c.06-.29.6-.56,1-.71A30.1,30.1,0,0,1,12.5,2.16c1.64,0,3.27-.21,4.9-.36a12.77,12.77,0,0,1,7.52,1.5c.4.22.87.34,1.26.58,2.33,1.38,4.79.94,7.17.34A11.23,11.23,0,0,1,40.54,5C43.23,6.09,46,7,48.86,6.2a55.22,55.22,0,0,0,6-2.4c2.64-1.06,5.28-2.15,7.94-3.17a1.79,1.79,0,0,1,2.25,1,13,13,0,0,1,1.69,6.12C66.81,8.28,66.77,8.85,66.77,9.42Z"/></g></g></svg>